HIERARCHY
ROOT Hip
{
  OFFSET 0.0 0.0 0.0
  CHANNELS 6 Xposition Yposition Zposition Xrotation Yrotation Zrotation
  JOINT LowerSpine
  {
    OFFSET 0.0 0.061367 -0.03653
    CHANNELS 3 Xrotation Yrotation Zrotation
    JOINT MiddleSpine
    {
      OFFSET 0.0 0.056002 0.002633
      CHANNELS 3 Xrotation Yrotation Zrotation
      JOINT Chest
      {
        OFFSET 0.0 0.069296 -0.013882
        CHANNELS 3 Xrotation Yrotation Zrotation
        JOINT Neck
        {
          OFFSET 0.0 0.156156 -0.002923
          CHANNELS 3 Xrotation Yrotation Zrotation
          JOINT Head
          {
            OFFSET 0.0 0.088183 0.023986
            CHANNELS 3 Xrotation Yrotation Zrotation
            End Site
            {
              OFFSET 1e-06 0.123215 0.003678
            }
          }
        }
        JOINT LClavicle
        {
          OFFSET 0.014189 0.150698 0.046467
          CHANNELS 3 Xrotation Yrotation Zrotation
          JOINT LShoulder
          {
            OFFSET 0.082893 0.021616 -0.034976
            CHANNELS 3 Xrotation Yrotation Zrotation
            JOINT LForearm
            {
              OFFSET 0.195645 -0.000695 -0.001695
              CHANNELS 3 Xrotation Yrotation Zrotation
              JOINT LHand
              {
                OFFSET 0.163209 0.000474 -0.000977
                CHANNELS 3 Xrotation Yrotation Zrotation
                End Site
                {
                  OFFSET 0.0 0.006864 0.0
                }
              }
            }
          }
        }
        JOINT RClavicle
        {
          OFFSET -0.014189 0.150698 0.046467
          CHANNELS 3 Xrotation Yrotation Zrotation
          JOINT RShoulder
          {
            OFFSET -0.082908 0.021619 -0.034982
            CHANNELS 3 Xrotation Yrotation Zrotation
            JOINT RForearm
            {
              OFFSET -0.195645 -0.000695 -0.001695
              CHANNELS 3 Xrotation Yrotation Zrotation
              JOINT RHand
              {
                OFFSET -0.163209 0.000474 -0.000977
                CHANNELS 3 Xrotation Yrotation Zrotation
                End Site
                {
                  OFFSET 0.0 0.006864 0.0
                }
              }
            }
          }
        }
      }
    }
  }
  JOINT RThigh
  {
    OFFSET -0.072558 0.02774 -0.005953
    CHANNELS 3 Xrotation Yrotation Zrotation
    JOINT RShin
    {
      OFFSET -0.005253 -0.285537 0.0
      CHANNELS 3 Xrotation Yrotation Zrotation
      JOINT RFoot
      {
        OFFSET 0.0 -0.28038 0.0
        CHANNELS 3 Xrotation Yrotation Zrotation
        JOINT RToe
        {
          OFFSET 0.0 -0.030816 0.064441
          CHANNELS 3 Xrotation Yrotation Zrotation
          End Site
          {
            OFFSET 0.0 0.0 0.043231
          }
        }
      }
    }
  }
  JOINT LThigh
  {
    OFFSET 0.072557 0.027741 -0.005953
    CHANNELS 3 Xrotation Yrotation Zrotation
    JOINT LShin
    {
      OFFSET 0.005253 -0.285539 0.0
      CHANNELS 3 Xrotation Yrotation Zrotation
      JOINT LFoot
      {
        OFFSET 0.0 -0.28038 0.0
        CHANNELS 3 Xrotation Yrotation Zrotation
        JOINT LToe
        {
          OFFSET 0.0 -0.030816 0.064441
          CHANNELS 3 Xrotation Yrotation Zrotation
          End Site
          {
            OFFSET 0.0 0.0 0.043231
          }
        }
      }
    }
  }
}
MOTION
Frames: 7
Frame Time: 0.03333333333333333
-0.042925 0.561137 -0.06638 6.729414 -0.383956 1.24134 3.255252 2.236262 -4.103122 -1.082908 -0.301792 -3.985864 -4.385989 1.070904 1.518169 -0.986432 -2.482754 1.887142 -1.548212 2.389073 0.884357 -4.142778 0.046286 -3.441508 21.172382 -17.520128 -43.451012 8.569272 -39.300095 -1.44002 -1.603501 -1.356427 0.863084 -1.752739 5.815188 9.037325 14.118115 21.760458 46.355045 7.895303 33.828129 -1.769451 2.470332 0.478271 1.154431 -20.71574 -1.557254 -8.246979 15.164702 -4.1461 9.211449 -3.703691 3.006049 3.636698 1.62566 -1.345404 -1.214851 -13.690331 7.229473 8.78102 9.749282 9.229128 -4.670438 -1.682473 -1.201651 -3.078726 -1.876472 1.795084 0.715177 
-0.060445 0.557987 -0.084688 4.869498 1.368556 1.579154 5.394998 2.672002 -6.083176 -3.41252 -1.916446 -5.215029 -4.302556 -0.770436 4.546755 -0.006587 -4.449179 2.571951 -3.424462 4.183743 1.746783 -6.994033 -2.881845 -2.08421 21.502384 -13.961263 -43.163811 6.283068 -38.364395 -1.641577 -4.010256 -3.082572 2.051288 -4.299893 11.12197 9.334444 14.518747 16.466475 46.223427 8.396205 40.427639 -0.275342 4.664456 1.937388 2.425289 -19.267107 -3.387629 -7.814124 13.402717 -5.016089 10.146654 -3.014111 4.820571 5.19671 2.604583 -4.164835 -2.454108 -15.226481 7.186059 8.215487 11.16342 7.551906 -2.382031 -3.135571 -2.693129 -4.886731 -4.086368 3.837204 1.858914 
-0.066881 0.564132 -0.081099 3.192935 2.417874 1.562754 5.919945 2.324772 -6.514273 -3.38428 -1.479691 -4.732381 -3.5442 -0.978098 5.060289 0.733417 -4.16618 2.663242 -3.071418 3.965187 1.632268 -6.850254 -3.483872 -2.233608 20.759819 -13.527748 -44.930683 5.019969 -36.748692 -0.630862 -3.817721 -2.929956 2.106703 -4.52125 11.340481 9.032546 12.897863 13.365987 46.922264 5.844667 45.437912 -0.646819 4.456722 1.951603 2.28012 -16.162975 -4.678997 -7.156211 11.334105 -5.503495 9.547071 -2.882362 5.330296 5.329184 2.614207 -4.029503 -2.38993 -12.368041 6.428607 7.587149 10.156229 6.176956 -1.892425 -3.718597 -1.64213 -4.065022 -3.799382 3.632236 1.853164 
-0.069048 0.570087 -0.076038 2.184093 2.856757 1.416643 5.923389 2.141507 -6.99435 -3.291106 -1.281495 -4.578982 -3.32049 -0.65599 5.902128 1.204148 -4.240481 3.05065 -3.139049 4.195079 1.743402 -6.761579 -3.162227 -2.666567 19.805408 -13.595767 -47.06744 4.28768 -34.684589 -0.537846 -4.073222 -3.055381 2.342127 -3.471056 11.204434 8.506873 9.447989 10.134465 47.579418 1.196603 52.142548 -1.046863 4.634036 2.011721 2.42431 -14.361757 -4.74403 -6.5635 10.107802 -5.301672 9.014265 -3.143612 5.449566 5.804414 2.779957 -4.226175 -2.56035 -9.861677 5.557583 6.718634 8.178143 5.379465 -0.704704 -3.936501 3.5e-05 -3.479057 -3.9732 3.838338 1.914233 
-0.072406 0.569712 -0.069012 1.852668 2.822701 1.241737 5.115663 2.249938 -7.42666 -3.096572 -1.217815 -4.754094 -2.968185 -0.690797 6.933397 1.115223 -4.747817 3.268278 -3.471661 4.779049 1.976231 -6.745842 -2.39641 -3.200965 18.925707 -13.030259 -49.00444 3.208457 -33.012569 -0.968438 -4.577553 -3.372077 2.61387 -1.620685 11.071464 7.810273 5.09074 7.197583 46.85965 -5.859746 61.083694 -1.096445 5.12795 2.136553 2.670045 -12.422117 -4.199139 -5.998249 8.448205 -4.590728 8.739478 -3.978161 5.61646 6.703099 3.024378 -4.707787 -2.839028 -8.400671 4.140477 5.771114 6.878075 4.636637 1.110808 -4.012561 1.951773 -3.22141 -4.430209 4.220235 2.090229 
-0.072112 0.567008 -0.060293 2.306836 2.822661 0.969625 3.848439 2.498249 -7.872259 -2.824616 -1.234834 -5.37976 -2.902219 -1.30546 7.556631 0.35444 -5.596839 3.209568 -3.951445 5.532995 2.254367 -6.522781 -1.165965 -3.792653 18.082142 -12.68654 -50.12104 2.2001 -30.999151 -1.724738 -5.15137 -3.747908 2.836545 0.576231 10.490985 7.209095 0.925375 4.689908 45.524242 -14.405508 70.919495 -0.47543 5.719117 2.184587 2.950254 -10.716138 -3.751645 -5.875329 6.784083 -3.687862 8.961182 -4.640461 5.532011 7.753963 3.229688 -5.236315 -3.162284 -7.835479 2.702128 5.010495 6.067345 4.489608 2.896851 -4.075105 4.054945 -3.409461 -5.09999 4.582562 2.331268 
-0.068177 0.564722 -0.051726 2.998096 3.015344 0.793426 2.141464 2.98088 -7.962658 -2.489696 -1.360676 -6.156266 -2.555937 -2.290898 7.707133 -0.430281 -6.527061 2.871318 -4.27083 6.346089 2.514686 -6.460852 0.331187 -4.844656 17.591383 -12.563893 -50.950726 1.063827 -28.331625 -2.991572 -5.719144 -4.180678 3.130936 2.819587 9.665219 7.049922 -3.736474 3.223241 43.676098 -27.604679 80.820244 5.25004 6.460877 2.321019 3.180993 -9.07567 -3.207313 -6.140747 4.834758 -2.466752 8.797827 -5.095544 4.757148 8.621735 3.53126 -5.83593 -3.518611 -7.040536 1.264659 3.968665 5.060946 4.800442 4.302792 -4.345751 6.585329 -3.243629 -5.838135 5.050584 2.519441 
